<svg width="336" height="140" viewBox="0 0 336 140" fill="none" xmlns="http://www.w3.org/2000/svg">
<g clip-path="url(#clip0_3415_41221)">
<path d="M69.88 0C31.35 0 0 31.35 0 69.88C0 108.41 31.35 139.76 69.88 139.76C108.41 139.76 139.76 108.41 139.76 69.88C139.76 31.35 108.42 0 69.88 0ZM69.88 138.69C31.95 138.69 1.08 107.82 1.08 69.88C1.08 31.94 31.95 1.08 69.88 1.08C107.81 1.08 138.68 31.94 138.68 69.88C138.68 107.82 107.82 138.68 69.88 138.68V138.69Z" fill="#017CB4"/>
<path d="M69.8891 15.7891C40.0591 15.7891 15.7891 40.0491 15.7891 69.8891C15.7891 99.7291 40.0491 123.989 69.8891 123.989C99.7291 123.989 123.989 99.7291 123.989 69.8891C123.989 40.0491 99.7191 15.7891 69.8891 15.7891ZM69.8891 123.149C40.5291 123.149 16.6291 99.2491 16.6291 69.8891C16.6291 40.5291 40.5291 16.6291 69.8891 16.6291C99.2491 16.6291 123.149 40.5291 123.149 69.8891C123.149 99.2491 99.2491 123.149 69.8891 123.149Z" fill="#017CB4"/>
<path d="M14.0998 60.1804C13.7998 61.1304 13.7698 61.2104 12.4598 61.0204L7.02977 60.2704C5.74977 60.0904 5.74977 59.9904 5.70977 59.0204V58.9504L5.32977 58.9004L4.75977 63.0204L5.13977 63.0704L5.15977 63.0004C5.42977 62.0704 5.49977 61.9904 6.76977 62.1704L12.2098 62.9204C13.4598 63.0904 13.5098 63.1404 13.5498 64.1604V64.2304L13.9298 64.2804L14.4998 60.1604L14.1198 60.1104L14.0998 60.1804Z" fill="#017CB4"/>
<path d="M9.72078 48.9503L9.48078 48.8703C8.61078 48.6003 8.54078 48.3903 8.61078 47.4903V47.4203L8.25078 47.3203L7.31078 50.6503L7.68078 50.7603L7.71078 50.6903C8.19078 49.5503 8.45078 49.3803 9.32078 49.5803C9.41078 49.6003 9.49078 49.6203 9.59078 49.6403C9.92078 49.7203 10.3808 49.8203 11.4608 50.1203L13.7108 50.7603L6.31078 54.1703L5.55078 56.8603L5.92078 56.9703L5.95078 56.9003C6.21078 56.3403 6.36078 56.1503 6.90078 55.9503C7.10078 55.8703 7.36078 55.8703 7.62078 55.9403L11.1508 56.9403C12.1208 57.2103 12.6408 57.4003 13.0608 57.5403L13.2508 57.6103C14.1408 57.9203 14.2808 58.0503 14.1508 59.0503V59.1203L14.5108 59.2303L15.4408 55.9503L15.0708 55.8403L15.0408 55.9103C14.5308 57.0703 14.3008 57.0603 13.4108 56.8703C12.9408 56.7703 12.5308 56.6603 11.3208 56.3203L8.11078 55.4103L16.8708 51.5303L16.9108 51.5103L17.0408 51.0503L11.6408 49.5203C10.5108 49.2003 10.0808 49.0603 9.74078 48.9503H9.72078Z" fill="#017CB4"/>
<path d="M19.0099 45.0802C18.3399 46.0402 18.2599 46.0502 16.9999 45.4602L14.8499 44.4502L15.4599 43.1402C15.8499 42.3002 16.0399 42.3302 16.9399 42.4802L17.0799 42.5002L17.2399 42.1602L14.5199 40.8902L14.3699 41.2202L14.4199 41.2602C15.1999 41.8902 15.3199 42.0202 14.9099 42.8802L14.2899 44.1902L11.3499 42.8202C11.1799 42.7402 11.0999 42.6802 11.0799 42.6202C11.0599 42.5502 11.0799 42.4502 11.1699 42.2602L11.5899 41.3702C11.9899 40.5102 12.2899 40.3302 12.7099 40.2902C13.0699 40.2602 13.4999 40.2802 13.8399 40.3502L13.9199 40.3702L14.0399 40.0002L13.9599 39.9702C13.3999 39.7702 12.6399 39.4602 12.2399 39.2902L11.9299 39.1602L11.8999 39.2402C11.8299 39.4302 11.5499 40.0402 11.0699 41.0702L9.16992 45.1302L9.51992 45.2902L9.55992 45.2302C10.1399 44.4302 10.1899 44.3702 11.4199 44.9402L16.1699 47.1602C17.4699 47.7702 17.4799 47.8702 17.2299 48.8102L17.2099 48.8802L17.5599 49.0402L19.3799 45.1402L19.0299 44.9802L18.9899 45.0402L19.0099 45.0802Z" fill="#017CB4"/>
<path d="M24.5099 34.6501C24.2699 33.4201 23.4999 32.3001 22.3299 31.5001C21.2499 30.7601 19.9699 30.4701 18.7399 30.7001C17.5399 30.9201 16.4999 31.6101 15.7999 32.6401C14.7899 34.1001 14.8499 35.5001 15.0799 36.4101C15.3699 37.5801 16.1199 38.6501 17.1399 39.3501C17.9799 39.9301 18.9399 40.2301 19.8999 40.2301C20.1599 40.2301 20.4199 40.2101 20.6699 40.1601C21.9099 39.9501 22.9999 39.2301 23.7499 38.1401C24.4699 37.0901 24.7399 35.8501 24.4999 34.6501H24.5099ZM23.4599 37.6501C22.5199 39.0301 20.3699 38.9201 18.1099 37.3701C16.0499 35.9501 15.2699 34.3501 16.0799 33.1601C17.0299 31.7701 19.0799 31.8901 21.4099 33.5001C23.4999 34.9301 24.2599 36.4801 23.4599 37.6501Z" fill="#017CB4"/>
<path d="M32.9898 26.8395L32.9198 26.8795C32.4198 27.1395 32.2098 27.1795 31.7298 27.1495C31.2698 27.1195 30.9598 27.0595 29.9598 26.8395C29.2798 26.6895 27.9798 26.3595 27.4798 26.2295C27.9198 25.0495 27.7598 24.0695 26.9898 23.3195C26.4698 22.8195 25.8198 22.6095 25.1498 22.7495C24.4698 22.8695 23.8898 23.2495 23.0298 24.1295L20.3398 26.8795L20.6098 27.1495L20.6698 27.0995C21.4598 26.5095 21.5798 26.5295 22.4098 27.3395L26.4398 31.2795C27.2698 32.0795 27.2798 32.1495 26.7298 33.0195L26.6998 33.0795L26.9698 33.3495L29.8498 30.3995L29.5698 30.1295L29.5098 30.1695C28.6598 30.7295 28.5598 30.7195 27.7598 29.9295L26.0598 28.2695L26.1498 28.1795C26.4498 27.8695 26.6798 27.8395 27.2998 28.0195C28.3698 28.3495 29.1898 28.5695 29.9798 28.7195C30.8798 28.9095 31.4498 28.7895 32.6898 27.6295L33.1798 27.1295L32.9898 26.8395ZM25.8498 27.7895L25.7198 27.9295L23.1298 25.3995C22.9398 25.2095 22.9298 25.1295 22.9398 25.0495C22.9398 24.9995 22.9998 24.8795 23.2398 24.6295C23.3798 24.4895 23.7198 24.2095 24.2298 24.2095C24.6498 24.2095 25.1898 24.3995 25.8198 25.0195C26.3798 25.5695 26.6098 25.9995 26.5998 26.5195C26.5998 26.9495 26.3198 27.3095 25.8498 27.7995V27.7895Z" fill="#017CB4"/>
<path d="M42.5107 20.0102C41.5107 20.4502 41.4307 20.3802 40.6407 19.2602L37.6207 14.9602C36.8807 13.9002 36.9207 13.8202 37.7207 13.0302L37.7707 12.9802L37.5507 12.6602L35.2507 14.2402L36.5007 21.0702L30.6207 17.4202L28.2207 19.0702L28.4407 19.3902L28.5107 19.3502C29.6307 18.7402 29.9307 19.2202 30.0307 19.3802C32.9107 24.1702 33.2707 24.7902 33.4707 25.2002C33.6707 25.6202 33.6907 25.9002 32.9707 26.5602L32.9107 26.6102L33.1307 26.9302L35.9807 24.9702L35.7607 24.6502L35.6907 24.6802C34.6907 25.1602 34.4307 25.1602 34.1007 24.7302C33.9507 24.5302 33.2907 23.5802 30.8707 19.6802C33.1607 21.1702 36.8007 23.5802 37.3407 23.9602L37.3907 23.9902L37.6607 23.8002V23.7402C37.5207 23.2302 36.8107 19.6302 36.2807 17.0102L36.0607 15.8902L39.0607 20.3302C39.8907 21.5602 39.8307 21.6102 39.1707 22.2902L39.1207 22.3402L39.3407 22.6602L42.7907 20.2902L42.5707 19.9702L42.5007 20.0002L42.5107 20.0102Z" fill="#017CB4"/>
<path d="M51.3291 16.2206H51.2591C50.4591 16.4006 50.2991 16.3606 49.3091 15.3306C47.5891 13.5706 45.7291 11.6606 43.8691 9.69062L43.8191 9.64062L43.3891 9.91062L43.7091 17.8806C43.7591 19.1906 43.6791 19.4006 42.9291 19.8906L42.8691 19.9306L43.0291 20.2806L45.9691 18.9906L45.8191 18.6406L45.7491 18.6606C45.1391 18.8006 44.7991 18.8606 44.6391 18.7406C44.4991 18.6406 44.4491 18.3806 44.4191 17.9706C44.3691 17.4706 44.3291 16.8306 44.2791 16.1506L46.5091 15.1706C46.8591 15.5306 47.1691 15.8706 47.4491 16.1706C47.6191 16.3606 47.7791 16.5206 47.8991 16.6506C48.1591 16.9306 48.2691 17.0806 48.2591 17.2106C48.2491 17.3506 48.0891 17.5206 47.6891 17.8106L47.6291 17.8506L47.7791 18.2006L51.4891 16.5706L51.3391 16.2206H51.3291ZM44.2391 15.4906C44.2091 14.9606 44.1691 14.4506 44.1391 13.9206C44.1091 13.4706 44.0791 13.0106 44.0491 12.5206L46.0491 14.6906L44.2391 15.4906Z" fill="#017CB4"/>
<path d="M56.5708 14.8107C55.5408 14.9307 55.3908 14.9007 55.0708 13.7707L53.1908 7.1507L54.2108 6.8607C54.9008 6.6607 55.0508 6.7007 55.3108 6.8607C55.7008 7.1107 55.8908 7.4107 56.1608 7.8307L56.2808 8.0107L56.6308 7.8607L56.6008 7.7807C56.3208 7.0607 56.0008 5.9807 55.8808 5.5507L55.8608 5.4707L55.5708 5.5507L55.5508 5.5807C55.3708 5.8907 55.2008 5.9707 54.8608 6.0707L49.4708 7.6007C49.1008 7.7007 48.9208 7.7607 48.6408 7.5507L48.6108 7.5207L48.3008 7.6107L48.3208 7.6907C48.4708 8.3007 48.6508 9.1907 48.8108 10.0507L48.8308 10.1407L49.2108 10.0307V9.9707C49.2308 9.3507 49.3108 8.8307 49.4408 8.5607C49.5608 8.3307 49.6508 8.1507 50.2208 7.9907L51.3608 7.6707L53.2408 14.2807C53.5608 15.4007 53.4608 15.4507 52.5608 15.9407L52.5008 15.9707L52.6008 16.3407L56.7508 15.1607L56.6508 14.7907H56.5808L56.5708 14.8107Z" fill="#017CB4"/>
<path d="M63.4791 13.5805C62.4891 13.5605 62.3991 13.5605 62.2091 12.2505L61.3891 6.83055C61.1991 5.55055 61.2891 5.52055 62.2191 5.21055L62.2891 5.19055L62.2291 4.81055L58.1191 5.43055L58.1791 5.81055H58.2591C59.2291 5.81055 59.3191 5.85055 59.5091 7.12055L60.3291 12.5505C60.5191 13.8005 60.4891 13.8605 59.5191 14.1805L59.4491 14.2005L59.5091 14.5805L63.6191 13.9605L63.5591 13.5805H63.4891H63.4791Z" fill="#017CB4"/>
<path d="M69.5005 4.18945H69.4705C66.4805 4.20945 64.7205 6.71945 64.7305 9.11945C64.7505 11.8295 66.7805 13.8595 69.4605 13.8595H69.5005C70.7805 13.8595 71.9505 13.3595 72.8005 12.4895C73.6705 11.5895 74.1505 10.3095 74.1405 8.89945C74.1205 6.24945 72.0905 4.18945 69.5105 4.18945H69.5005ZM69.7205 13.3395H69.7005C68.8705 13.3395 68.1705 12.8895 67.6605 12.0495C67.1705 11.2395 66.9005 10.0795 66.8905 8.78945C66.8905 7.48945 67.1105 6.42945 67.5405 5.71945C67.9405 5.06945 68.5105 4.71945 69.1805 4.71945H69.2005C70.8805 4.71945 71.9305 6.45945 71.9505 9.27945C71.9705 11.8095 71.1305 13.3195 69.7205 13.3395Z" fill="#017CB4"/>
<path d="M82.8505 6.07078L82.9205 6.09078C84.1005 6.46078 84.3005 6.70078 84.1805 7.58078C84.1705 7.67078 84.1605 7.76078 84.1405 7.86078C84.1005 8.20078 84.0405 8.66078 83.8405 9.77078L83.4205 12.0708L79.3205 5.08078L79.3006 5.05078L76.5506 4.55078L76.4806 4.93078L76.5506 4.95078C77.1306 5.15078 77.3405 5.29078 77.5905 5.80078C77.6905 5.99078 77.7205 6.25078 77.6705 6.51078L77.0205 10.1208C76.8405 11.1208 76.7105 11.6408 76.6005 12.0908L76.5605 12.2708C76.3405 13.1808 76.2205 13.3408 75.2105 13.3108H75.1305L75.0605 13.6908L78.4106 14.3008L78.4806 13.9208L78.4106 13.9008C77.2106 13.5108 77.1906 13.2808 77.3006 12.3708C77.3606 11.8908 77.4205 11.4708 77.6405 10.2408L78.2306 6.95078L82.9706 15.3208L83.4406 15.4008L84.4406 9.88078C84.6506 8.73078 84.7505 8.29078 84.8205 7.93078L84.8706 7.68078C85.0606 6.79078 85.2506 6.70078 86.1606 6.68078H86.2306L86.3006 6.30078L82.8905 5.68078L82.8205 6.06078L82.8505 6.07078Z" fill="#017CB4"/>
<path d="M93.6892 12.7799C92.8292 11.6499 92.5792 11.1199 92.8892 10.3599C93.2092 9.55988 93.8292 9.24988 94.5492 9.53988C95.6992 10.0099 95.8092 11.0999 95.6892 11.9399V12.0199L96.0692 12.0999L96.0892 12.0199C96.2492 11.3599 96.4592 10.6099 96.5992 10.1199L96.6192 10.0499L96.5492 10.0199C96.4692 9.97988 96.3492 9.90988 96.2092 9.82988C95.9092 9.64988 95.4992 9.39988 94.9692 9.18988C93.2892 8.50988 91.7092 9.03988 91.1192 10.4899C90.5792 11.8299 91.2392 12.8899 92.1492 14.1299C92.8692 15.0899 93.0492 15.8199 92.7492 16.5699C92.5392 17.0899 92.0292 17.8999 90.9792 17.4799C89.9392 17.0599 89.4292 15.9899 89.6092 14.6299V14.5499L89.2392 14.4699L89.2192 14.5399C89.1492 14.7499 88.7192 16.3599 88.6992 16.6599V16.7099L88.7392 16.7399C89.4192 17.2399 89.9692 17.5999 90.5892 17.8499C91.0992 18.0599 91.5992 18.1499 92.0792 18.1499C93.2692 18.1499 94.2792 17.5399 94.7192 16.4499C95.2892 15.0499 94.5592 13.9199 93.6992 12.7899L93.6892 12.7799Z" fill="#017CB4"/>
<path d="M101.839 13.3991L102.749 13.9191C103.449 14.3191 103.659 14.5191 103.719 14.8891C103.799 15.3191 103.719 15.8291 103.639 16.2191L103.619 16.2991L103.979 16.4291L104.009 16.3491C104.249 15.7891 104.639 14.9791 104.889 14.5291L104.939 14.4391L104.849 14.3991C104.789 14.3691 104.499 14.2291 103.079 13.4291L99.3191 11.2891L99.1291 11.6291L99.1891 11.6791C99.9491 12.2391 99.9591 12.3191 99.3591 13.3791L96.5491 18.3191C95.9691 19.3391 95.8991 19.3691 94.7991 18.9291L94.7291 18.8991L94.5391 19.2391L100.609 22.6891L100.659 22.6391C100.899 22.3891 101.789 21.3291 102.099 20.9291L102.149 20.8591L101.869 20.6191L101.809 20.6591C101.379 20.9991 100.919 21.3291 100.559 21.4491C100.079 21.5991 99.8791 21.5991 99.1991 21.2091L98.4791 20.7991C97.7491 20.3691 97.7091 20.1591 98.1591 19.3591L99.5891 16.8491L100.689 17.4791C101.559 17.9691 101.479 18.2291 101.259 18.9791L101.219 19.1291L101.549 19.3191L103.009 16.7591L102.679 16.5691L102.589 16.6691C102.019 17.2991 101.869 17.4591 100.989 16.9591L99.8891 16.3291L101.499 13.4991C101.609 13.3091 101.629 13.2891 101.849 13.4091L101.839 13.3991Z" fill="#017CB4"/>
<path d="M109.631 26.5395C108.181 27.2895 107.181 27.3095 106.281 26.5795C105.521 25.9695 105.161 25.1195 105.221 24.1095C105.291 23.1195 105.761 22.0395 106.591 21.0095C108.191 19.0095 110.001 18.4995 111.421 19.6295C111.871 19.9895 112.121 20.2895 112.301 20.6495C112.651 21.3595 112.631 21.9595 112.221 22.9295L112.191 23.0095L112.571 23.1995L112.611 23.1295C112.911 22.6395 113.371 21.9195 113.791 21.3395L113.841 21.2795L113.781 21.2295C113.711 21.1695 113.611 21.0495 113.491 20.9095C113.161 20.5295 112.651 19.9595 112.021 19.4595C110.761 18.4495 109.401 17.9695 108.071 18.0595C106.771 18.1495 105.621 18.7795 104.741 19.8695C103.911 20.8995 103.521 22.0995 103.621 23.2595C103.741 24.5795 104.501 25.8395 105.831 26.8995C106.491 27.4295 107.361 27.8695 107.781 28.0795L107.941 28.1595L107.981 28.1395C108.411 27.9295 109.391 27.2495 109.851 26.8895L109.911 26.8395L109.711 26.4995L109.641 26.5395H109.631Z" fill="#017CB4"/>
<path d="M118.919 31.5606C119.699 30.8706 120.109 30.5506 120.429 30.3006L120.459 30.2706C120.899 29.9406 121.139 29.7506 121.889 30.4306L121.949 30.4806L122.239 30.2206L120.019 27.6906L119.729 27.9506L119.779 28.0106C120.499 28.9706 120.409 29.2206 119.969 29.6706C119.619 30.0406 119.179 30.4506 118.499 31.0606L117.229 32.1806C116.229 33.0606 115.479 33.5006 114.849 33.5906C114.239 33.6706 113.719 33.4206 113.169 32.7806C112.159 31.6306 112.319 30.4306 113.609 29.2906L116.469 26.7806C117.539 25.8406 117.619 25.8206 118.419 26.4606L118.479 26.5106L118.769 26.2606L116.019 23.1406L115.729 23.4006L115.769 23.4606C116.309 24.3106 116.269 24.4306 115.209 25.3606L112.479 27.7606C111.349 28.7506 110.899 29.5506 110.929 30.5306C110.949 31.3306 111.309 32.1406 112.009 32.9306C112.769 33.7906 113.579 34.2306 114.479 34.2506H114.539C115.639 34.2506 116.539 33.6606 117.689 32.6506L118.929 31.5606H118.919Z" fill="#017CB4"/>
<path d="M125.531 35.3501L123.511 32.0801L123.181 32.2801L123.211 32.3501C123.591 33.2701 123.551 33.3701 122.561 33.9801L117.771 36.9401C116.791 37.5501 116.721 37.5401 116.001 36.8001L115.951 36.7501L115.631 36.9501L117.801 40.4501L118.121 40.2501L118.101 40.1801C117.761 39.2201 117.801 39.1301 118.761 38.5401L120.781 37.2901L120.851 37.3901C121.081 37.7601 121.051 38.0001 120.731 38.5401C120.161 39.4901 119.751 40.2501 119.401 40.9801C119.011 41.8101 118.971 42.3901 119.811 43.8701C119.901 44.0101 120.101 44.3501 120.141 44.4101L120.171 44.4701L120.501 44.3501L120.481 44.2701C120.351 43.7201 120.351 43.5101 120.501 43.0501C120.641 42.6101 120.781 42.3301 121.231 41.4101C121.541 40.7801 122.171 39.6001 122.431 39.1501C123.471 39.8601 124.461 39.9401 125.371 39.3801C125.981 39.0001 126.341 38.4101 126.371 37.7301C126.411 37.0401 126.181 36.3901 125.531 35.3401V35.3501ZM125.151 36.5601C125.001 37.0301 124.611 37.4601 124.001 37.8401C123.331 38.2601 122.861 38.3701 122.361 38.2301C121.951 38.1201 121.661 37.7701 121.301 37.2001L121.201 37.0401L124.281 35.1301C124.511 34.9901 124.591 35.0001 124.671 35.0301C124.721 35.0501 124.821 35.1301 125.011 35.4301C125.161 35.6701 125.311 36.0701 125.161 36.5601H125.151Z" fill="#017CB4"/>
<path d="M123.281 46.8909L128.291 44.6609C129.471 44.1309 129.531 44.2209 130.071 45.0309L130.111 45.0909L130.461 44.9309L128.771 41.1309L128.421 41.2909L128.441 41.3609C128.701 42.2909 128.691 42.3909 127.511 42.9209L122.491 45.1509C121.341 45.6609 121.271 45.6509 120.701 44.8009L120.661 44.7409L120.311 44.9009L122.001 48.7009L122.351 48.5409L122.331 48.4709C122.091 47.5009 122.071 47.4309 123.281 46.8909Z" fill="#017CB4"/>
<path d="M125.691 53.9198L132.271 51.9098L132.581 52.9198C132.791 53.6098 132.761 53.7498 132.591 54.0198C132.351 54.4098 132.051 54.6098 131.641 54.8898L131.461 55.0098L131.621 55.3598L131.701 55.3298C132.391 55.0398 133.381 54.7298 133.911 54.5698L133.991 54.5398L133.901 54.2498L133.871 54.2298C133.561 54.0498 133.471 53.8898 133.371 53.5498L131.731 48.1898C131.621 47.8298 131.561 47.6398 131.761 47.3598L131.791 47.3198L131.701 47.0098L131.621 47.0298C131.001 47.1898 130.101 47.3998 129.271 47.5698L129.181 47.5898L129.301 47.9698H129.361C129.981 47.9698 130.501 48.0498 130.781 48.1798C131.011 48.2898 131.191 48.3798 131.361 48.9398L131.711 50.0698L125.131 52.0798C124.011 52.4198 123.961 52.3298 123.461 51.4298L123.431 51.3698L123.061 51.4798L124.321 55.6098L124.691 55.4998V55.4298C124.541 54.3998 124.571 54.2498 125.691 53.9098V53.9198Z" fill="#017CB4"/>
<path d="M134.891 61.6896L134.511 61.7496V61.8296C134.511 62.3896 134.451 62.6796 134.321 62.7796C134.211 62.8596 134.021 62.8296 133.741 62.7496C132.881 62.5096 131.461 62.0596 130.421 61.7296C130.911 61.3796 131.381 61.0396 131.831 60.6996C132.361 60.3096 132.871 59.9296 133.371 59.5796C133.571 59.4396 133.731 59.3496 133.831 59.3796C133.961 59.4196 134.081 59.6796 134.241 60.0796L134.271 60.1496L134.651 60.0896L134.051 56.0996L133.671 56.1596V56.2296C133.651 57.0096 133.541 57.1196 132.581 57.8696C131.461 58.7496 130.401 59.5396 129.671 60.0396C129.451 60.1896 129.291 60.2596 129.011 60.2996L127.451 60.5296C126.001 60.7496 125.921 60.7096 125.621 59.6796L125.601 59.6096L125.221 59.6696L125.851 63.9196L126.231 63.8596V63.7896C126.261 62.7396 126.271 62.6596 127.741 62.4396L129.551 62.1696C129.831 62.1296 129.941 62.1696 130.171 62.2396L130.521 62.3596C131.541 62.6996 132.591 63.0396 133.561 63.4196C134.501 63.7796 134.681 63.8696 134.931 64.7496L134.951 64.8196L135.331 64.7596L134.881 61.7096L134.891 61.6896Z" fill="#017CB4"/>
<path d="M36.3907 116.371C36.9207 116.771 37.2407 117.101 37.4607 117.501C37.9207 118.281 37.9507 118.941 37.5707 119.991L37.5407 120.061L37.9507 120.261L37.9907 120.191C38.2907 119.651 38.7407 118.871 39.1507 118.261L39.1907 118.201L39.1307 118.151C39.0507 118.081 38.9307 117.961 38.7807 117.801C38.3807 117.381 37.7707 116.761 37.0207 116.201C34.0307 113.961 30.7907 114.101 28.9607 116.541C28.1307 117.651 27.7907 118.951 28.0107 120.211C28.2607 121.641 29.2107 123.021 30.7807 124.201C31.5607 124.781 32.5607 125.281 33.0407 125.511L33.2307 125.601L33.2707 125.581C33.7407 125.351 34.7707 124.631 35.2507 124.251L35.3107 124.201L35.0707 123.841L35.0007 123.871C33.4507 124.671 32.3307 124.671 31.2507 123.861C30.3507 123.181 29.8607 122.241 29.8507 121.141C29.8407 120.061 30.2707 118.901 31.1107 117.781C32.7307 115.631 34.7007 115.101 36.3907 116.361V116.371Z" fill="#017CB4"/>
<path d="M48.1192 122.61L48.0292 122.58C47.9692 122.56 47.6492 122.43 45.9192 121.59L41.4392 119.41L41.2692 119.77L41.3392 119.81C42.2792 120.39 42.2892 120.48 41.7292 121.63L39.1192 126.99C38.5792 128.1 38.5092 128.13 37.1892 127.69L37.1192 127.66L36.9492 128.02L44.1092 131.51L44.1692 131.54L44.2092 131.49C44.4492 131.22 45.3392 130.06 45.6492 129.61L45.6992 129.54L45.3792 129.3L45.3292 129.34C44.8792 129.71 44.3992 130.08 44.0092 130.22C43.5092 130.39 43.2792 130.41 42.4292 129.99L41.5692 129.57C40.6892 129.13 40.6092 128.9 41.0292 128.03L42.3592 125.3L43.6892 125.95C44.7392 126.46 44.6792 126.76 44.5092 127.55L44.4792 127.71L44.8492 127.89L46.1992 125.12L45.8292 124.94L45.7392 125.04C45.1792 125.71 45.0092 125.91 43.9492 125.4L42.6192 124.75L44.1192 121.67C44.1792 121.56 44.2192 121.5 44.2592 121.49C44.3092 121.48 44.3792 121.5 44.5192 121.57L45.6092 122.1C46.4492 122.51 46.7092 122.73 46.8192 123.12C46.9592 123.58 46.9192 124.13 46.8792 124.55V124.62L47.2692 124.74L47.2992 124.66C47.4992 124.06 47.8592 123.18 48.0792 122.68L48.1192 122.59V122.61Z" fill="#017CB4"/>
<path d="M57.7798 128.121C57.9798 127.391 57.7998 126.671 57.2898 126.111C56.7698 125.541 56.0698 125.181 54.6998 124.811L50.4198 123.631L50.3198 124.011L50.3898 124.041C51.4298 124.501 51.4898 124.631 51.1698 125.801L49.5898 131.511C49.2598 132.701 49.1698 132.721 48.0098 132.631H47.9398L47.8398 133.011L52.3998 134.271L52.4998 133.891L52.4398 133.861C51.3898 133.341 51.3398 133.241 51.6598 132.091L52.3198 129.681L52.4698 129.721C52.9598 129.861 53.1298 130.061 53.2998 130.731C53.5898 131.881 53.8598 132.771 54.1598 133.591C54.4898 134.521 54.9298 135.001 56.7998 135.591L57.5698 135.801L57.7398 135.481L57.6698 135.441C57.1198 135.091 56.9598 134.921 56.7098 134.451C56.4798 134.001 56.3598 133.681 55.9998 132.631C55.7598 131.921 55.3398 130.551 55.1698 130.001C56.5998 129.841 57.4698 129.211 57.7698 128.131L57.7798 128.121ZM55.4398 127.851C55.2198 128.641 54.9198 129.071 54.3998 129.311C53.9698 129.521 53.4498 129.441 52.6898 129.231L52.4598 129.171L53.4698 125.501C53.5498 125.231 53.6198 125.181 53.7098 125.151C53.7698 125.131 53.9198 125.121 54.3198 125.231C54.7198 125.341 55.9798 125.861 55.4298 127.861L55.4398 127.851Z" fill="#017CB4"/>
<path d="M69.3305 126.699C69.0105 126.929 68.7905 126.959 68.3805 126.919L61.9205 126.379C61.4805 126.339 61.2505 126.319 61.0305 126.009L61.0105 125.979L60.6605 125.949V126.029C60.5605 126.699 60.4105 127.629 60.2505 128.529L60.2305 128.629L60.6605 128.669L60.6905 128.609C60.9505 128.009 61.2505 127.529 61.5105 127.309C61.7205 127.139 61.9005 126.989 62.5905 127.039L63.9705 127.159L63.3705 134.359C63.2705 135.579 63.1405 135.599 61.9605 135.729H61.8905L61.8605 136.129L66.8005 136.539L66.8305 136.139L66.7605 136.119C65.5805 135.839 65.4405 135.759 65.5405 134.529L66.1405 127.329L67.3705 127.429C68.1705 127.499 68.3305 127.579 68.5705 127.859C68.8905 128.249 68.9805 128.619 69.1105 129.129L69.1605 129.339H69.5805V129.239C69.5605 128.459 69.6405 127.359 69.6905 126.779V126.689L69.3705 126.659L69.3405 126.679L69.3305 126.699Z" fill="#017CB4"/>
<path d="M76.8991 135.829C75.7491 135.729 75.6591 135.719 75.5591 134.329L75.1491 128.589C75.0591 127.269 75.1391 127.219 76.2691 126.949L76.3391 126.929L76.3091 126.529L71.5391 126.869L71.5691 127.269H71.6491C72.7691 127.349 72.8791 127.389 72.9691 128.739L73.3791 134.489C73.4691 135.819 73.4291 135.879 72.2791 136.149L72.2091 136.169L72.2391 136.569L76.9991 136.229L76.9691 135.829H76.8991Z" fill="#017CB4"/>
<path d="M85.4908 128.049V128.119C85.4408 129.149 85.4308 129.359 84.3108 129.599L82.6608 129.959L81.9308 126.629C81.8508 126.259 81.9008 126.199 82.3408 126.099L83.4408 125.859C84.5108 125.629 84.8908 125.759 85.2108 126.079C85.4908 126.359 85.7608 126.719 85.9208 127.049L85.9508 127.119L86.3508 126.979L86.3208 126.899C86.1208 126.309 85.9008 125.479 85.7808 125.029C85.7508 124.919 85.7308 124.839 85.7108 124.779L85.6908 124.689L85.6008 124.719C85.4408 124.769 84.9308 124.899 83.3408 125.239L78.3008 126.339L78.3908 126.729H78.4608C79.6008 126.679 79.7008 126.669 80.0008 128.069L81.1808 133.449C81.5008 134.919 81.4108 134.999 80.3608 135.419L80.2908 135.449L80.3808 135.839L85.2108 134.789L85.1308 134.399H85.0608C83.7008 134.479 83.6408 134.429 83.3208 132.989L82.7908 130.549L84.4408 130.189C85.5008 129.959 85.6008 130.139 86.0708 130.979L86.1408 131.109L86.5408 131.019L85.8708 127.949L85.4808 128.029L85.4908 128.049Z" fill="#017CB4"/>
<path d="M95.4005 131.121C94.2705 131.351 94.1805 131.371 93.6905 130.071L91.6705 124.681C91.2005 123.441 91.2705 123.361 92.2805 122.791L92.3405 122.751L92.2005 122.381L87.7305 124.061L87.8705 124.431L87.9405 124.411C89.0405 124.161 89.1505 124.181 89.6305 125.441L91.6605 130.841C92.1305 132.081 92.1005 132.161 91.0705 132.741L91.0005 132.781L91.1405 133.151L95.6205 131.471L95.4805 131.101L95.4105 131.121H95.4005Z" fill="#017CB4"/>
<path d="M104.89 124.03L104.86 123.95L104.48 124.08V124.15C104.53 124.74 104.56 125.33 104.45 125.74C104.3 126.25 104.18 126.45 103.36 126.91L102.53 127.37C101.66 127.84 101.43 127.77 100.96 126.93L99.4796 124.27L100.77 123.55C101.79 122.98 102 123.21 102.55 123.79L102.66 123.91L103.02 123.71L101.52 121.02L101.16 121.22L101.19 121.35C101.42 122.19 101.49 122.45 100.46 123.02L99.1696 123.74L97.5096 120.75C97.3996 120.54 97.3896 120.51 97.6596 120.36L98.7196 119.77C99.5396 119.32 99.8596 119.23 100.25 119.36C100.71 119.51 101.14 119.85 101.45 120.14L101.51 120.19L101.84 119.93L101.79 119.86C101.41 119.34 100.9 118.55 100.62 118.08L100.57 118L100.49 118.06C100.43 118.1 100.1 118.31 98.4596 119.22L94.0996 121.64L94.2896 121.99L94.3596 121.96C95.3696 121.53 95.4496 121.56 96.0796 122.69L98.9696 127.9C99.5696 128.98 99.5496 129.06 98.4396 129.88L98.3796 129.93L98.5696 130.28L105.6 126.38L105.58 126.32C105.49 125.97 105.06 124.58 104.87 124.07L104.89 124.03Z" fill="#017CB4"/>
<path d="M113.811 113.209C112.941 112.189 111.901 111.689 110.631 111.689H110.601C109.321 111.699 107.851 112.389 106.351 113.669L102.721 116.769L102.981 117.069L103.041 117.029C104.001 116.439 104.111 116.409 104.941 117.379L108.781 121.869C109.611 122.839 109.571 122.939 108.831 123.799L108.781 123.859L109.041 124.159L112.491 121.209C113.761 120.119 114.551 118.909 114.911 117.519C115.291 115.969 114.921 114.519 113.811 113.209ZM112.621 120.329C111.641 121.169 111.051 121.139 110.251 120.229L106.321 115.709C106.001 115.339 105.881 115.159 105.911 115.009C105.961 114.779 106.181 114.509 106.571 114.169C107.401 113.459 108.131 113.169 108.961 113.199C110.021 113.219 111.171 113.869 112.121 114.969C113.081 116.089 113.611 117.119 113.681 118.009C113.751 118.879 113.401 119.659 112.621 120.319V120.329Z" fill="#017CB4"/>
<path d="M8.92094 72.5997C10.4209 72.5997 11.6309 71.3897 11.6309 69.8897C11.6309 68.3897 10.4209 67.1797 8.92094 67.1797C7.42094 67.1797 6.21094 68.3897 6.21094 69.8897C6.21094 71.3897 7.42094 72.5997 8.92094 72.5997Z" fill="#017CB4"/>
<path d="M130.851 72.5997C132.351 72.5997 133.561 71.3897 133.561 69.8897C133.561 68.3897 132.351 67.1797 130.851 67.1797C129.351 67.1797 128.141 68.3897 128.141 69.8897C128.141 71.3897 129.351 72.5997 130.851 72.5997Z" fill="#017CB4"/>
<path d="M52.5902 44.0308C51.1502 43.2708 49.7502 42.4108 48.4102 41.4608C51.6902 38.9708 55.4202 37.0408 59.4502 35.8008C59.9502 36.2108 60.4702 36.5908 61.0002 36.9408C57.8302 38.8408 55.0002 41.2408 52.5902 44.0308Z" fill="#017CB4"/>
<path d="M64.5797 38.8005C62.6397 41.2705 60.9597 43.9705 59.5497 46.8405C57.4497 46.2305 55.3997 45.4405 53.4297 44.4505C55.8497 41.6905 58.6797 39.3305 61.8697 37.4805C62.7497 38.0105 63.6597 38.4505 64.5897 38.8005H64.5797Z" fill="#017CB4"/>
<path d="M65.4697 39.1191C66.8297 39.5491 68.2197 39.7891 69.6097 39.8391V48.3291C66.4697 48.2891 63.3897 47.8691 60.4297 47.0991C61.8397 44.2391 63.5297 41.5691 65.4697 39.1291V39.1191Z" fill="#017CB4"/>
<path d="M74.7898 39.0801C76.7398 41.5201 78.4298 44.2001 79.8398 47.0501C76.8298 47.8501 73.7098 48.2801 70.5098 48.3201V39.8301C71.9498 39.7901 73.3798 39.5301 74.7798 39.0801H74.7898Z" fill="#017CB4"/>
<path d="M70.0595 38.94C66.7095 38.94 63.5095 37.79 60.5195 35.5C63.4995 34.69 66.6395 34.25 69.8795 34.25C73.1195 34.25 76.4495 34.71 79.5195 35.57C76.5495 37.8 73.3795 38.94 70.0595 38.94Z" fill="#017CB4"/>
<path d="M86.7597 44.4309C84.8197 45.4009 82.7997 46.1909 80.7197 46.8009C79.3097 43.9309 77.6197 41.2309 75.6797 38.7509C76.5697 38.4109 77.4497 37.9709 78.3097 37.4609C81.4997 39.3109 84.3397 41.6709 86.7597 44.4309Z" fill="#017CB4"/>
<path d="M79.1699 36.9209C79.6499 36.6009 80.1199 36.2609 80.5799 35.8809C84.5799 37.1409 88.2699 39.1009 91.5299 41.5909C90.2599 42.4809 88.9499 43.2809 87.5899 44.0009C85.1799 41.2109 82.3499 38.8109 79.1699 36.9109V36.9209Z" fill="#017CB4"/>
<path d="M69.6191 100.12V91.1602C66.4591 91.1902 63.3591 91.6102 60.3691 92.4002C61.8591 95.4202 63.6691 98.2402 65.7591 100.79C67.0291 100.4 68.3191 100.17 69.6191 100.11V100.12Z" fill="#017CB4"/>
<path d="M79.9193 92.4499C76.8993 91.6399 73.7493 91.1999 70.5293 91.1699V100.13C71.9093 100.15 73.2693 100.36 74.5993 100.76C76.6593 98.2299 78.4393 95.4399 79.9193 92.4599V92.4499Z" fill="#017CB4"/>
<path d="M78.1798 102.289C81.4898 100.399 84.4098 97.9592 86.8998 95.1092C84.9498 94.1292 82.8998 93.3192 80.7998 92.6992C79.3298 95.6892 77.5598 98.4992 75.5098 101.049C76.4198 101.369 77.2998 101.789 78.1798 102.289Z" fill="#017CB4"/>
<path d="M72.1802 109.86C71.9802 109.64 71.6602 109.54 71.2202 109.54C70.7802 109.54 70.4502 109.65 70.2602 109.87C70.0602 110.09 69.9602 110.43 69.9602 110.86V115.37C69.9602 115.81 70.0602 116.14 70.2602 116.36C70.4602 116.58 70.7802 116.69 71.2202 116.69C71.6602 116.69 71.9802 116.58 72.1802 116.36C72.3802 116.14 72.4802 115.8 72.4802 115.37V110.86C72.4802 110.43 72.3802 110.09 72.1802 109.87V109.86ZM80.2902 109.86C80.0902 109.64 79.7702 109.54 79.3302 109.54C78.8902 109.54 78.5602 109.65 78.3602 109.87C78.1602 110.09 78.0602 110.43 78.0602 110.86V115.37C78.0602 115.81 78.1602 116.14 78.3602 116.36C78.5602 116.58 78.8802 116.69 79.3202 116.69C79.7602 116.69 80.0802 116.58 80.2802 116.36C80.4802 116.14 80.5902 115.8 80.5902 115.37V110.86C80.5902 110.43 80.4902 110.09 80.2902 109.87V109.86ZM80.2902 109.86C80.0902 109.64 79.7702 109.54 79.3302 109.54C78.8902 109.54 78.5602 109.65 78.3602 109.87C78.1602 110.09 78.0602 110.43 78.0602 110.86V115.37C78.0602 115.81 78.1602 116.14 78.3602 116.36C78.5602 116.58 78.8802 116.69 79.3202 116.69C79.7602 116.69 80.0802 116.58 80.2802 116.36C80.4802 116.14 80.5902 115.8 80.5902 115.37V110.86C80.5902 110.43 80.4902 110.09 80.2902 109.87V109.86ZM72.1802 109.86C71.9802 109.64 71.6602 109.54 71.2202 109.54C70.7802 109.54 70.4502 109.65 70.2602 109.87C70.0602 110.09 69.9602 110.43 69.9602 110.86V115.37C69.9602 115.81 70.0602 116.14 70.2602 116.36C70.4602 116.58 70.7802 116.69 71.2202 116.69C71.6602 116.69 71.9802 116.58 72.1802 116.36C72.3802 116.14 72.4802 115.8 72.4802 115.37V110.86C72.4802 110.43 72.3802 110.09 72.1802 109.87V109.86ZM69.8902 17.6602C41.0402 17.6602 17.6602 41.0402 17.6602 69.8902C17.6602 98.7402 41.0402 122.12 69.8902 122.12C98.7402 122.12 122.12 98.7402 122.12 69.8902C122.12 41.0402 98.7402 17.6602 69.8902 17.6602ZM69.8902 33.3502C84.4302 33.3502 97.0201 41.8902 102.89 54.2102C102.49 54.0702 102.1 53.9302 101.69 53.8102C99.4002 49.3002 96.1802 45.3402 92.2702 42.1702C90.9602 43.1102 89.5902 43.9502 88.1802 44.7002C90.1902 47.1502 91.8902 49.8702 93.2402 52.8002C92.9202 52.8102 92.6002 52.8302 92.2702 52.8502C90.9602 50.0502 89.3102 47.4702 87.3702 45.1302C85.3702 46.1402 83.2702 46.9702 81.1202 47.6102C82.2102 49.9502 83.1202 52.3902 83.8502 54.9202C83.5702 55.0502 83.3001 55.1902 83.0302 55.3302C82.2902 52.7402 81.3602 50.2402 80.2402 47.8602C77.1102 48.7202 73.8502 49.1602 70.5102 49.2002V53.3802H69.6102V49.2002C66.3302 49.1602 63.1202 48.7202 60.0302 47.8902C59.2702 49.5102 58.6002 51.1702 58.0102 52.8902C57.6902 52.9102 57.3602 52.9302 57.0402 52.9602C57.6402 51.1402 58.3402 49.3702 59.1402 47.6502C56.9602 47.0102 54.8402 46.1702 52.8102 45.1502C50.5402 47.8902 48.6702 50.9902 47.2602 54.3402C47.1402 54.0102 46.9102 53.7402 46.6102 53.5702C48.0102 50.3502 49.8202 47.3802 51.9902 44.7302C50.5002 43.9302 49.0502 43.0302 47.6602 42.0302C43.8102 45.1102 40.6002 48.9802 38.2902 53.3902H37.2702C43.3002 41.5002 55.6602 33.3402 69.8702 33.3402L69.8902 33.3502ZM64.7502 74.4902L64.7202 74.4702C64.0802 74.0702 61.6802 73.1802 57.5302 71.7902C53.1902 70.3402 51.9002 69.7602 50.2202 68.5502C48.1402 67.0402 46.9902 64.9502 46.9902 62.6402C46.9902 57.6602 51.8902 54.3202 59.1802 54.3202C62.2302 54.3202 64.7002 54.8902 66.8302 56.0902V54.8302H72.2402V64.5602H66.9902L66.9002 63.9402C66.3902 60.3702 63.0802 59.6202 60.3802 59.6202C57.5202 59.6202 55.6002 60.6102 55.6002 62.0802C55.6002 63.2102 56.1002 63.8602 60.8902 65.3402C66.5002 67.1502 69.3302 68.3402 70.9802 69.5802C73.2602 71.2402 74.3702 73.3902 74.3702 76.1702C74.3702 81.7102 69.2802 85.4402 61.7102 85.4402C58.0902 85.4402 55.5602 84.8202 53.1402 83.2702V84.9202H47.6702V73.8502H53.1202V74.5602C53.1802 77.7902 56.4502 80.0402 61.0702 80.0402C64.1602 80.0402 66.0902 78.7902 66.0902 76.7602C66.0902 75.7902 65.5902 74.9402 64.7402 74.4702L64.7502 74.4902ZM27.5402 84.9302V79.9202H32.3002V59.8402H27.5402V54.8302H45.9102V59.8402H41.0902V79.9202H45.9102V84.9302H27.5402ZM58.4002 118.26H52.4502V116.82L52.4802 116.77L55.9402 112.15C56.1302 111.9 56.2802 111.64 56.3802 111.37C56.4802 111.11 56.5302 110.86 56.5302 110.64C56.5302 110.28 56.4402 110.02 56.2402 109.83C56.0402 109.64 55.7502 109.55 55.3702 109.55C55.0102 109.55 54.7202 109.65 54.5102 109.86C54.2902 110.07 54.1502 110.38 54.1002 110.77V110.94H53.9202H52.3102V110.77C52.4002 110.15 52.5702 109.64 52.8402 109.21C53.1102 108.78 53.4602 108.45 53.8902 108.23C54.3102 108.01 54.8102 107.89 55.3502 107.89C55.9702 107.89 56.5002 108 56.9402 108.21C57.3902 108.43 57.7402 108.75 57.9702 109.16C58.2002 109.57 58.3202 110.07 58.3202 110.65C58.3202 111.02 58.2402 111.42 58.0902 111.82C57.9402 112.21 57.7302 112.6 57.4602 112.97L54.7902 116.6H58.3702V118.27L58.4002 118.26ZM65.9702 109.45L63.3702 118.26H61.5202L61.5902 118.03L64.0902 109.65H61.9702V111.08H60.2302V107.98H65.9802V109.45H65.9702ZM74.2202 115.37C74.2202 116.31 73.9602 117.05 73.4502 117.57C72.9402 118.1 72.1802 118.36 71.2202 118.36C70.2602 118.36 69.4902 118.09 68.9802 117.56C68.4702 117.03 68.2102 116.29 68.2102 115.36V110.85C68.2102 109.92 68.4702 109.18 68.9902 108.65C69.5002 108.12 70.2602 107.86 71.2202 107.86C72.1802 107.86 72.9502 108.13 73.4602 108.65C73.9702 109.17 74.2302 109.91 74.2302 110.85V115.36L74.2202 115.37ZM82.3401 115.37C82.3401 116.31 82.0802 117.05 81.5702 117.57C81.0602 118.1 80.3002 118.36 79.3402 118.36C78.3802 118.36 77.6102 118.09 77.1002 117.56C76.5902 117.03 76.3302 116.29 76.3302 115.36V110.85C76.3302 109.92 76.5902 109.18 77.1102 108.65C77.6202 108.12 78.3802 107.86 79.3402 107.86C80.3002 107.86 81.0702 108.13 81.5802 108.65C82.0902 109.17 82.3502 109.91 82.3502 110.85V115.36L82.3401 115.37ZM87.4602 118.26H85.7202V109.98L84.3102 110.85V109L85.8401 107.98H87.4602V118.26ZM69.8902 106.42C55.6702 106.42 43.3202 98.2602 37.2902 86.3702H38.3102C40.5802 90.7002 43.7102 94.5202 47.4802 97.5702C48.8902 96.5402 50.3602 95.6102 51.8902 94.7902C49.7702 92.1902 48.0102 89.2902 46.6502 86.1602C46.7002 86.1302 46.7502 86.1002 46.8002 86.0602C47.0402 86.2502 47.3602 86.3702 47.6802 86.3702H47.7302C49.0502 89.2702 50.7302 91.9501 52.7102 94.3602C54.7702 93.3202 56.9002 92.4702 59.1102 91.8202C58.3002 90.0802 57.5902 88.2702 56.9802 86.4102C57.3002 86.4802 57.6502 86.5502 57.9902 86.6002C58.5602 88.3002 59.2302 89.9602 59.9802 91.5702C63.0902 90.7302 66.3202 90.2902 69.6302 90.2502V85.3002C69.9402 85.1602 70.2502 85.0102 70.5302 84.8502V90.2502C73.8902 90.2902 77.1702 90.7502 80.3202 91.6102C81.4002 89.3102 82.3002 86.9002 83.0202 84.4002C83.2902 84.5502 83.5602 84.6902 83.8401 84.8202C83.1301 87.2602 82.2502 89.6202 81.1902 91.8702C83.3602 92.5202 85.4802 93.3602 87.5002 94.3802C89.3602 92.1102 90.9502 89.6002 92.2402 86.9002C92.5602 86.9302 92.8802 86.9401 93.2102 86.9501C91.8902 89.7901 90.2502 92.4402 88.3102 94.8202C89.7502 95.6002 91.1302 96.4702 92.4702 97.4402C96.2902 94.3102 99.4502 90.4002 101.69 85.9602C102.1 85.8302 102.5 85.7001 102.9 85.5602C97.0302 97.9001 84.4402 106.44 69.8902 106.44V106.42ZM107.34 81.3302C104.16 84.0802 99.6302 85.5302 94.2402 85.5302C83.0702 85.5302 76.1402 79.4402 76.1402 69.6402C76.1402 59.8402 83.2302 54.2302 94.1902 54.2302C105.15 54.2302 112.24 60.2202 112.24 69.8602C112.24 74.5802 110.54 78.5502 107.34 81.3302ZM79.3302 109.54C78.8902 109.54 78.5602 109.65 78.3602 109.87C78.1602 110.09 78.0602 110.43 78.0602 110.86V115.37C78.0602 115.81 78.1602 116.14 78.3602 116.36C78.5602 116.58 78.8802 116.69 79.3202 116.69C79.7602 116.69 80.0802 116.58 80.2802 116.36C80.4802 116.14 80.5902 115.8 80.5902 115.37V110.86C80.5902 110.43 80.4902 110.09 80.2902 109.87C80.0902 109.65 79.7702 109.55 79.3302 109.55V109.54ZM71.2202 109.54C70.7802 109.54 70.4502 109.65 70.2602 109.87C70.0602 110.09 69.9602 110.43 69.9602 110.86V115.37C69.9602 115.81 70.0602 116.14 70.2602 116.36C70.4602 116.58 70.7802 116.69 71.2202 116.69C71.6602 116.69 71.9802 116.58 72.1802 116.36C72.3802 116.14 72.4802 115.8 72.4802 115.37V110.86C72.4802 110.43 72.3802 110.09 72.1802 109.87C71.9802 109.65 71.6602 109.55 71.2202 109.55V109.54ZM72.1802 109.86C71.9802 109.64 71.6602 109.54 71.2202 109.54C70.7802 109.54 70.4502 109.65 70.2602 109.87C70.0602 110.09 69.9602 110.43 69.9602 110.86V115.37C69.9602 115.81 70.0602 116.14 70.2602 116.36C70.4602 116.58 70.7802 116.69 71.2202 116.69C71.6602 116.69 71.9802 116.58 72.1802 116.36C72.3802 116.14 72.4802 115.8 72.4802 115.37V110.86C72.4802 110.43 72.3802 110.09 72.1802 109.87V109.86ZM72.1802 109.86C71.9802 109.64 71.6602 109.54 71.2202 109.54C70.7802 109.54 70.4502 109.65 70.2602 109.87C70.0602 110.09 69.9602 110.43 69.9602 110.86V115.37C69.9602 115.81 70.0602 116.14 70.2602 116.36C70.4602 116.58 70.7802 116.69 71.2202 116.69C71.6602 116.69 71.9802 116.58 72.1802 116.36C72.3802 116.14 72.4802 115.8 72.4802 115.37V110.86C72.4802 110.43 72.3802 110.09 72.1802 109.87V109.86Z" fill="#017CB4"/>
<path d="M79.0391 102.82C79.5491 103.15 80.0491 103.51 80.5391 103.89C84.6291 102.6 88.4191 100.6 91.7291 98.0095C90.4291 97.0895 89.0891 96.2695 87.7091 95.5195C85.2391 98.3995 82.3291 100.87 79.0391 102.81V102.82Z" fill="#017CB4"/>
<path d="M94.2006 59.5098C86.9206 59.5098 85.3906 65.0698 85.3906 69.7398C85.3906 76.7298 88.3606 80.2698 94.2006 80.2698C101.481 80.2698 103.001 74.6198 103.001 69.8698C103.001 65.1198 101.471 59.5098 94.2006 59.5098Z" fill="#017CB4"/>
<path d="M62.2005 102.38C63.0705 101.87 63.9505 101.46 64.8605 101.12C62.7805 98.5302 60.9805 95.6902 59.5005 92.6602C57.3705 93.2802 55.3005 94.0901 53.3105 95.0901C55.8305 98.0001 58.8305 100.48 62.2005 102.38Z" fill="#017CB4"/>
<path d="M52.4707 95.5098C51.0107 96.2898 49.5907 97.1698 48.2207 98.1598C51.6307 100.79 55.5307 102.8 59.7507 104.05C60.2607 103.64 60.7807 103.26 61.3207 102.92C57.9607 100.95 54.9807 98.4498 52.4607 95.5098H52.4707Z" fill="#017CB4"/>
<path d="M60.8398 104.35C63.7298 105.11 66.7698 105.52 69.8998 105.52C73.2198 105.52 76.4298 105.06 79.4898 104.21C76.5898 102.09 73.4898 101.01 70.2698 101.01C67.0498 101.01 63.7998 102.14 60.8498 104.35H60.8398Z" fill="#017CB4"/>
<path d="M265.56 5.31C301.17 5.31 330.14 34.28 330.14 69.89C330.14 105.5 301.17 134.47 265.56 134.47C229.95 134.47 200.98 105.5 200.98 69.89C200.98 34.28 229.95 5.31 265.56 5.31ZM265.56 0C226.96 0 195.68 31.29 195.68 69.88C195.68 108.47 226.97 139.77 265.56 139.77C304.15 139.77 335.45 108.48 335.45 69.88C335.45 31.28 304.16 0 265.56 0Z" fill="#017CB4"/>
<path d="M224.031 116.06L222.851 114.91L224.581 113.14L223.221 111.81L221.491 113.58L220.311 112.43L224.551 108.1L225.731 109.25L224.161 110.86L225.521 112.19L227.091 110.58L228.271 111.73L224.031 116.07V116.06Z" fill="#017CB4"/>
<path d="M225.99 117.691L229.79 112.971L231.07 114.001L227.27 118.721L225.99 117.691Z" fill="#017CB4"/>
<path d="M235.2 119.259C234.82 119.819 234.36 120.149 233.82 120.229C233.28 120.309 232.71 120.149 232.1 119.739L231.72 119.479L230.6 121.149L229.24 120.229L232.63 115.199L234.37 116.369C235 116.799 235.39 117.259 235.52 117.749C235.65 118.239 235.54 118.739 235.2 119.259ZM232.47 118.369L232.72 118.539C232.93 118.679 233.13 118.729 233.32 118.699C233.52 118.669 233.69 118.549 233.82 118.349C234.05 118.009 233.97 117.719 233.6 117.459L233.25 117.219L232.47 118.369Z" fill="#017CB4"/>
<path d="M238.13 125.561L238.39 124.411L236.64 123.501L235.85 124.371L234.25 123.541L238.81 119.051L240.75 120.061L239.72 126.381L238.13 125.551V125.561ZM238.71 123.071L238.94 122.071C238.99 121.851 239.06 121.561 239.14 121.211C239.22 120.861 239.29 120.611 239.33 120.461C239.24 120.581 239.09 120.761 238.88 121.011C238.67 121.261 238.23 121.751 237.57 122.481L238.72 123.081L238.71 123.071Z" fill="#017CB4"/>
<path d="M245.01 128.45L245.13 127.28L243.28 126.59L242.59 127.54L240.91 126.91L244.9 121.9L246.95 122.67L246.69 129.07L245.01 128.44V128.45ZM245.28 125.91L245.39 124.89C245.41 124.66 245.44 124.37 245.48 124.01C245.52 123.65 245.56 123.39 245.59 123.24C245.52 123.36 245.39 123.56 245.21 123.84C245.03 124.12 244.65 124.66 244.08 125.46L245.29 125.91H245.28Z" fill="#017CB4"/>
<path d="M250.941 130.199L249.691 129.889L250.911 125.049L249.311 124.649L249.571 123.609L254.011 124.729L253.751 125.769L252.151 125.359L250.931 130.199H250.941Z" fill="#017CB4"/>
<path d="M257.829 126.701C257.999 126.731 258.139 126.761 258.249 126.801L257.969 127.961C257.869 127.911 257.759 127.881 257.609 127.861C257.209 127.801 256.879 127.861 256.629 128.021C256.379 128.191 256.219 128.461 256.159 128.831L255.789 131.161L254.539 130.961L255.259 126.381L256.209 126.531L256.269 127.331H256.329C256.509 127.111 256.739 126.931 256.999 126.811C257.269 126.691 257.539 126.651 257.819 126.701H257.829Z" fill="#017CB4"/>
<path d="M262.469 131.861L262.269 131.221H262.239C262.009 131.471 261.779 131.641 261.549 131.731C261.319 131.821 261.019 131.851 260.659 131.831C260.219 131.801 259.879 131.651 259.639 131.381C259.399 131.111 259.299 130.741 259.329 130.271C259.359 129.781 259.559 129.431 259.919 129.221C260.279 129.011 260.809 128.911 261.499 128.941L262.299 128.971L262.319 128.771C262.349 128.301 262.129 128.051 261.649 128.021C261.279 128.001 260.839 128.081 260.329 128.271L259.969 127.391C260.519 127.141 261.119 127.041 261.769 127.091C262.389 127.131 262.859 127.301 263.169 127.591C263.479 127.881 263.619 128.301 263.589 128.851L263.379 131.931L262.499 131.871L262.469 131.861ZM262.239 129.691L261.749 129.671C261.379 129.661 261.109 129.711 260.919 129.821C260.729 129.931 260.629 130.111 260.609 130.361C260.589 130.721 260.779 130.911 261.189 130.931C261.479 130.951 261.719 130.881 261.909 130.721C262.089 130.561 262.199 130.351 262.219 130.071L262.239 129.691Z" fill="#017CB4"/>
<path d="M265.66 126.101C265.66 125.691 265.88 125.481 266.34 125.471C266.8 125.471 267.03 125.671 267.04 126.081C267.04 126.281 266.99 126.431 266.87 126.541C266.76 126.651 266.59 126.711 266.36 126.711C265.9 126.711 265.67 126.511 265.66 126.101ZM267.07 131.911L265.8 131.931L265.73 127.301L267 127.281L267.07 131.911Z" fill="#017CB4"/>
<path d="M273.81 131.42L272.55 131.54L272.29 128.84C272.26 128.51 272.18 128.27 272.04 128.11C271.91 127.96 271.71 127.89 271.45 127.92C271.1 127.95 270.85 128.1 270.72 128.35C270.58 128.6 270.54 129 270.6 129.54L270.81 131.71L269.55 131.83L269.1 127.21L270.06 127.12L270.29 127.69H270.36C270.48 127.45 270.66 127.26 270.89 127.12C271.13 126.98 271.4 126.9 271.72 126.87C272.25 126.82 272.67 126.92 272.98 127.19C273.28 127.45 273.47 127.86 273.52 128.4L273.81 131.41V131.42Z" fill="#017CB4"/>
<path d="M275.149 125.289C275.079 124.879 275.259 124.639 275.719 124.559C276.169 124.479 276.439 124.639 276.509 125.039C276.549 125.229 276.509 125.389 276.419 125.519C276.329 125.649 276.169 125.739 275.939 125.779C275.489 125.859 275.229 125.699 275.149 125.289ZM277.499 130.789L276.259 131.019L275.419 126.459L276.659 126.229L277.499 130.789Z" fill="#017CB4"/>
<path d="M284.059 129.171L282.839 129.501L282.119 126.891C282.029 126.571 281.909 126.341 281.749 126.211C281.589 126.081 281.389 126.051 281.139 126.121C280.799 126.211 280.579 126.391 280.489 126.661C280.399 126.931 280.429 127.331 280.569 127.861L281.139 129.961L279.919 130.291L278.699 125.821L279.629 125.571L279.949 126.101L280.019 126.081C280.099 125.831 280.239 125.611 280.449 125.441C280.659 125.261 280.919 125.131 281.219 125.051C281.739 124.911 282.169 124.941 282.519 125.151C282.859 125.361 283.109 125.731 283.259 126.261L284.049 129.181L284.059 129.171Z" fill="#017CB4"/>
<path d="M288.571 122.551L288.801 123.151L288.191 123.591C288.391 123.731 288.531 123.931 288.631 124.161C288.811 124.631 288.791 125.051 288.571 125.441C288.351 125.821 287.951 126.131 287.381 126.351L287.161 126.421L286.981 126.471C286.901 126.611 286.871 126.741 286.921 126.851C286.991 127.021 287.231 127.021 287.671 126.851L288.401 126.571C288.871 126.391 289.281 126.351 289.601 126.451C289.931 126.561 290.171 126.811 290.321 127.201C290.521 127.711 290.461 128.181 290.151 128.621C289.841 129.061 289.291 129.441 288.501 129.751C287.901 129.981 287.401 130.061 287.001 129.971C286.601 129.891 286.331 129.651 286.181 129.281C286.081 129.021 286.071 128.771 286.171 128.531C286.271 128.291 286.451 128.081 286.741 127.881C286.601 127.881 286.461 127.831 286.321 127.751C286.181 127.671 286.091 127.561 286.041 127.431C285.981 127.261 285.971 127.111 286.021 126.961C286.071 126.811 286.171 126.651 286.311 126.481C286.041 126.481 285.801 126.381 285.591 126.221C285.371 126.051 285.211 125.821 285.091 125.531C284.911 125.061 284.921 124.641 285.121 124.261C285.331 123.891 285.711 123.581 286.281 123.361C286.401 123.311 286.551 123.271 286.721 123.221C286.891 123.181 287.011 123.151 287.061 123.141L288.571 122.551ZM286.221 125.101C286.311 125.341 286.441 125.501 286.601 125.601C286.761 125.691 286.951 125.701 287.171 125.611C287.391 125.531 287.531 125.391 287.581 125.221C287.631 125.041 287.611 124.841 287.521 124.601C287.321 124.081 287.001 123.901 286.571 124.071C286.141 124.241 286.021 124.581 286.231 125.101H286.221ZM287.161 128.781C287.221 128.941 287.351 129.041 287.541 129.071C287.731 129.101 287.971 129.071 288.251 128.951C288.671 128.781 288.981 128.601 289.171 128.391C289.361 128.181 289.421 127.981 289.341 127.781C289.281 127.621 289.161 127.531 289.001 127.531C288.831 127.531 288.601 127.581 288.311 127.691L287.701 127.931C287.481 128.011 287.321 128.131 287.221 128.291C287.111 128.451 287.091 128.611 287.161 128.781Z" fill="#017CB4"/>
<path d="M291.58 125.59C291.48 125.38 291.46 125.19 291.52 125.03C291.58 124.87 291.72 124.74 291.93 124.63C292.14 124.53 292.32 124.51 292.49 124.56C292.66 124.62 292.79 124.75 292.89 124.95C292.99 125.15 293 125.33 292.94 125.5C292.88 125.67 292.75 125.8 292.54 125.9C292.33 126 292.14 126.02 291.98 125.97C291.81 125.92 291.68 125.79 291.58 125.59Z" fill="#017CB4"/>
<path d="M296.841 123.59C295.591 124.31 294.571 123.98 293.781 122.61C293.391 121.93 293.261 121.31 293.391 120.75C293.521 120.19 293.911 119.73 294.541 119.37C295.001 119.1 295.471 118.95 295.951 118.92L296.121 119.96C295.911 119.99 295.721 120.02 295.541 120.07C295.361 120.11 295.201 120.17 295.061 120.26C294.491 120.59 294.441 121.16 294.901 121.97C295.351 122.76 295.861 122.99 296.431 122.66C296.641 122.54 296.821 122.4 296.971 122.24C297.121 122.08 297.251 121.89 297.361 121.67L297.901 122.61C297.791 122.82 297.651 123 297.491 123.15C297.341 123.3 297.121 123.45 296.841 123.61V123.59Z" fill="#017CB4"/>
<path d="M302.05 117.241C302.49 117.851 302.67 118.451 302.59 119.031C302.51 119.611 302.19 120.101 301.61 120.521C301.25 120.781 300.87 120.931 300.48 120.961C300.09 120.991 299.72 120.921 299.36 120.731C299 120.541 298.68 120.251 298.4 119.851C297.96 119.231 297.78 118.641 297.86 118.071C297.94 117.501 298.27 117.001 298.85 116.591C299.21 116.331 299.59 116.181 299.98 116.141C300.37 116.101 300.74 116.181 301.1 116.361C301.46 116.551 301.78 116.841 302.06 117.241H302.05ZM299.44 119.101C299.71 119.471 299.97 119.711 300.23 119.821C300.49 119.921 300.76 119.881 301.03 119.681C301.3 119.481 301.43 119.251 301.42 118.971C301.4 118.691 301.26 118.371 300.99 117.991C300.72 117.611 300.46 117.381 300.21 117.281C299.96 117.181 299.69 117.231 299.41 117.431C299.13 117.631 299 117.861 299.01 118.131C299.02 118.401 299.16 118.731 299.43 119.101H299.44Z" fill="#017CB4"/>
<path d="M308.341 114.85L307.411 115.71L305.571 113.73C305.341 113.49 305.131 113.34 304.931 113.29C304.741 113.24 304.551 113.3 304.371 113.47C304.131 113.69 304.041 113.94 304.101 114.21C304.151 114.49 304.371 114.82 304.741 115.22L306.221 116.82L305.291 117.68L302.131 114.29L302.841 113.63L303.371 113.95L303.421 113.9C303.371 113.66 303.381 113.42 303.471 113.17C303.561 112.92 303.721 112.69 303.941 112.49C304.451 112.02 304.951 111.86 305.441 112.03L305.521 111.95C305.461 111.71 305.481 111.46 305.581 111.21C305.671 110.96 305.831 110.73 306.061 110.52C306.441 110.16 306.831 109.99 307.211 110C307.591 110.01 307.981 110.24 308.391 110.67L310.451 112.88L309.521 113.74L307.671 111.76C307.441 111.52 307.231 111.37 307.031 111.33C306.831 111.28 306.651 111.34 306.471 111.51C306.241 111.72 306.151 111.96 306.191 112.23C306.231 112.5 306.411 112.81 306.741 113.16L308.321 114.86L308.341 114.85Z" fill="#017CB4"/>
<path d="M265.559 34.3895C285.129 34.3895 301.059 50.3094 301.059 69.8895C301.059 89.4695 285.129 105.389 265.559 105.389C245.989 105.389 230.059 89.4695 230.059 69.8895C230.059 50.3094 245.989 34.3895 265.559 34.3895ZM265.559 16.1895C235.899 16.1895 211.859 40.2295 211.859 69.8895C211.859 99.5495 235.899 123.589 265.559 123.589C295.219 123.589 319.249 99.5495 319.249 69.8895C319.249 40.2295 295.209 16.1895 265.559 16.1895Z" fill="#017CB4"/>
<path d="M230.1 88.079C229.66 87.169 229.01 86.599 228.15 86.359C227.29 86.119 226.33 86.259 225.28 86.769C224.19 87.289 223.48 87.949 223.13 88.739C222.78 89.529 222.83 90.399 223.29 91.339C223.57 91.919 223.99 92.529 224.55 93.169L223.7 93.579C223.21 93.109 222.76 92.449 222.35 91.609C221.76 90.389 221.68 89.269 222.11 88.249C222.53 87.229 223.42 86.389 224.79 85.739C225.65 85.329 226.47 85.129 227.27 85.139C228.06 85.149 228.78 85.379 229.42 85.809C230.06 86.249 230.58 86.869 230.97 87.689C231.39 88.559 231.59 89.399 231.59 90.199H230.57C230.57 89.419 230.41 88.719 230.11 88.089L230.1 88.079Z" fill="white"/>
<path d="M236.55 102.669C235.47 103.669 234.37 104.189 233.25 104.219C232.13 104.249 231.11 103.779 230.21 102.809C229.29 101.819 228.87 100.769 228.98 99.669C229.09 98.569 229.69 97.499 230.79 96.469C231.88 95.449 232.98 94.929 234.09 94.899C235.2 94.879 236.21 95.359 237.14 96.359C238.04 97.329 238.44 98.369 238.33 99.479C238.22 100.599 237.63 101.659 236.55 102.669ZM231.55 97.309C230.64 98.159 230.13 98.999 230.02 99.829C229.91 100.659 230.2 101.439 230.89 102.179C231.58 102.929 232.34 103.269 233.17 103.209C233.99 103.149 234.86 102.699 235.78 101.839C236.68 100.989 237.19 100.169 237.31 99.349C237.43 98.529 237.13 97.749 236.44 97.009C235.74 96.259 234.98 95.919 234.15 95.969C233.32 96.019 232.45 96.469 231.55 97.309Z" fill="white"/>
<path d="M242.979 112.47L243.959 103.79L243.919 103.77C243.669 104.37 243.349 105.06 242.939 105.86L240.249 111.06L239.369 110.6L243.599 102.43L245.029 103.17L244.129 111.25L244.179 111.27L250.279 105.88L251.699 106.61L247.469 114.78L246.519 114.29L249.249 109.02C249.559 108.42 249.929 107.77 250.349 107.09L250.299 107.07L243.759 112.86L242.999 112.46L242.979 112.47Z" fill="white"/>
<path d="M262.14 111.529C261.99 112.449 261.57 113.109 260.86 113.499C260.15 113.899 259.22 113.999 258.05 113.809L256.98 113.639L256.41 117.209L255.35 117.039L256.79 107.949L259.14 108.319C261.41 108.679 262.41 109.739 262.13 111.509L262.14 111.529ZM257.12 112.739L258.07 112.889C259.01 113.039 259.71 112.999 260.17 112.759C260.64 112.519 260.93 112.069 261.03 111.409C261.12 110.809 261 110.329 260.65 109.969C260.3 109.609 259.71 109.369 258.88 109.239L257.7 109.049L257.11 112.739H257.12Z" fill="white"/>
<path d="M268.35 118.03L267.43 108.87L268.49 108.76L269.31 116.95L273.35 116.55L273.45 117.51L268.35 118.02V118.03Z" fill="white"/>
<path d="M279.869 115.91L277.039 107.15L278.059 106.82L280.889 115.58L279.869 115.91Z" fill="white"/>
<path d="M292.91 109.671L290.42 107.751L287.26 109.651L287.8 112.741L286.87 113.301L285.23 103.511L286 103.051L293.86 109.101L292.91 109.671ZM289.64 107.101L287.25 105.211C286.94 104.971 286.6 104.671 286.2 104.291C286.33 104.681 286.44 105.131 286.54 105.631L287.08 108.631L289.63 107.101H289.64Z" fill="white"/>
<path d="M303.849 99.3809L303.029 100.291L293.919 98.8709L293.889 98.9109C294.609 99.4709 295.249 100.001 295.809 100.501L299.699 103.991L299.039 104.721L292.189 98.5709L292.999 97.6709L302.069 99.0809L302.099 99.0409C302.009 98.9709 301.729 98.7409 301.249 98.3509C300.769 97.9609 300.439 97.6809 300.249 97.4909L296.319 93.9609L296.989 93.2109L303.839 99.3609L303.849 99.3809Z" fill="white"/>
<path d="M309.37 90.0607L308.91 91.0307L301.46 87.4807L300.21 90.1107L299.35 89.7007L302.31 83.4707L303.17 83.8807L301.92 86.5107L309.37 90.0607Z" fill="white"/>
<path d="M237.9 43.2306L235.97 46.0106L231.8 43.1206L229.57 46.3306L233.74 49.2206L231.81 52.0006L221.58 44.9106L223.51 42.1306L227.3 44.7606L229.53 41.5506L225.74 38.9206L227.67 36.1406L237.9 43.2306Z" fill="white"/>
<path d="M245.919 37.0591L239.859 26.1891L242.809 24.5391L248.869 35.4091L245.919 37.0591Z" fill="white"/>
<path d="M266.81 22.8104C266.92 24.2004 266.59 25.3004 265.83 26.1204C265.07 26.9404 263.94 27.4104 262.43 27.5204L261.49 27.5904L261.81 31.7104L258.45 31.9704L257.49 19.5604L261.79 19.2304C263.36 19.1104 264.56 19.3604 265.41 19.9804C266.25 20.6004 266.72 21.5504 266.82 22.8104H266.81ZM261.28 24.8604L261.89 24.8104C262.39 24.7704 262.78 24.6004 263.06 24.2904C263.34 23.9804 263.46 23.5804 263.42 23.0804C263.35 22.2404 262.86 21.8604 261.93 21.9304L261.06 22.0004L261.28 24.8504V24.8604Z" fill="white"/>
<path d="M283.021 35.7696L283.401 33.3896L279.701 31.7596L278.181 33.6396L274.801 32.1496L283.561 22.3496L287.661 24.1596L286.381 37.2596L283.011 35.7696H283.021ZM283.881 30.5796L284.211 28.4896C284.281 28.0196 284.381 27.4296 284.511 26.6896C284.641 25.9596 284.741 25.4396 284.811 25.1296C284.651 25.3696 284.361 25.7696 283.961 26.3196C283.551 26.8696 282.721 27.9296 281.461 29.5096L283.881 30.5796Z" fill="white"/>
<path d="M297.77 49.8299L299.34 47.9999L297.04 44.6699L294.76 45.4799L292.66 42.4399L305.25 38.6699L307.8 42.3599L299.86 52.8499L297.77 49.8199V49.8299ZM301.21 45.8599L302.59 44.2599C302.89 43.8999 303.29 43.4399 303.78 42.8799C304.27 42.3199 304.63 41.9299 304.85 41.7099C304.58 41.8299 304.13 42.0199 303.5 42.2699C302.87 42.5299 301.6 42.9899 299.7 43.6799L301.21 45.8599Z" fill="white"/>
<path d="M261.06 76.6904C260.23 76.6904 259.51 76.1504 259.26 75.3604C258.95 74.3604 259.5 73.3004 260.5 72.9904L269.32 70.2404C269.5 70.1804 269.69 70.1504 269.88 70.1504C270.71 70.1504 271.44 70.6804 271.69 71.4804C271.84 71.9704 271.79 72.4704 271.56 72.9304C271.33 73.3704 270.93 73.7004 270.45 73.8504L261.63 76.6004C261.45 76.6604 261.26 76.6904 261.06 76.6904Z" fill="#017CB4"/>
<path d="M261.691 82.5195C260.951 82.5195 260.301 82.0395 260.071 81.3295C259.941 80.8995 259.981 80.4395 260.191 80.0395C260.401 79.6395 260.751 79.3495 261.191 79.2095L268.741 76.8495C268.911 76.7995 269.081 76.7695 269.251 76.7695C269.991 76.7695 270.641 77.2495 270.871 77.9595C271.151 78.8495 270.651 79.8095 269.761 80.0795L262.201 82.4395C262.031 82.4895 261.861 82.5195 261.691 82.5195Z" fill="#017CB4"/>
<path d="M262.32 88.3506C261.66 88.3506 261.09 87.9206 260.89 87.3006C260.64 86.5106 261.09 85.6706 261.87 85.4206L268.16 83.4606C268.31 83.4206 268.45 83.3906 268.6 83.3906C269.26 83.3906 269.83 83.8106 270.03 84.4406C270.15 84.8206 270.11 85.2306 269.93 85.5806C269.75 85.9306 269.43 86.1906 269.05 86.3106L262.76 88.2706C262.61 88.3106 262.46 88.3406 262.31 88.3406L262.32 88.3506Z" fill="#017CB4"/>
<path d="M262.96 94.1798C262.39 94.1798 261.89 93.8098 261.72 93.2698C261.51 92.5798 261.89 91.8498 262.57 91.6398L267.59 90.0698C267.72 90.0298 267.85 90.0098 267.98 90.0098C268.55 90.0098 269.05 90.3798 269.22 90.9298C269.32 91.2598 269.29 91.6098 269.13 91.9198C268.97 92.2298 268.69 92.4598 268.37 92.5598L263.34 94.1298C263.22 94.1698 263.09 94.1898 262.95 94.1898L262.96 94.1798Z" fill="#017CB4"/>
<path d="M268.961 56.3809C268.961 54.4909 267.431 52.9609 265.551 52.9609C263.671 52.9609 262.131 54.4909 262.131 56.3809C262.131 57.5909 262.761 58.6509 263.721 59.2609H263.631L264.111 71.3209L266.951 70.4309L267.451 59.2609H267.371C268.321 58.6509 268.951 57.5909 268.951 56.3809H268.961Z" fill="#017CB4"/>
<path d="M264.621 84.0204L266.361 83.4704L266.441 81.6504L264.551 82.2404L264.621 84.0204Z" fill="#017CB4"/>
<path d="M264.879 90.3795L266.069 90.0095L266.169 87.7695L264.789 88.1995L264.869 90.3795H264.879Z" fill="#017CB4"/>
<path d="M265.119 96.4291H265.779L265.899 93.8691L265.029 94.1391L265.119 96.4291Z" fill="#017CB4"/>
<path d="M264.37 77.6708L266.66 76.9508L266.73 75.5508L264.32 76.3008L264.37 77.6708Z" fill="#017CB4"/>
<path d="M262.419 62.1403C262.419 62.1403 259.969 61.3303 259.989 57.6103C260.009 53.9003 237.559 55.9703 237.559 55.9703C237.559 55.9703 236.869 58.4503 239.979 58.7603C239.979 58.7603 240.239 61.4903 242.399 61.7503C242.399 61.7503 242.309 65.2003 247.579 64.8603C247.579 64.8603 245.449 68.7003 262.809 67.8403L262.429 62.1303L262.419 62.1403Z" fill="#017CB4"/>
<path d="M268.7 62.1403C268.7 62.1403 271.15 61.3303 271.13 57.6103C271.11 53.9003 293.57 55.9703 293.57 55.9703C293.57 55.9703 294.26 58.4503 291.15 58.7603C291.15 58.7603 290.89 61.4903 288.73 61.7503C288.73 61.7503 288.82 65.2003 283.55 64.8603C283.55 64.8603 285.68 68.7003 268.32 67.8403L268.7 62.1303V62.1403Z" fill="#017CB4"/>
<path d="M224.141 69.8798C224.141 71.5598 222.781 72.9198 221.101 72.9198C219.421 72.9198 218.061 71.5598 218.061 69.8798C218.061 68.1998 219.421 66.8398 221.101 66.8398C222.781 66.8398 224.141 68.1998 224.141 69.8798Z" fill="white"/>
<path d="M313.09 69.8798C313.09 71.5598 311.72 72.9198 310.04 72.9198C308.36 72.9198 307 71.5598 307 69.8798C307 68.1998 308.36 66.8398 310.04 66.8398C311.72 66.8398 313.09 68.1998 313.09 69.8798Z" fill="white"/>
</g>
<defs>
<clipPath id="clip0_3415_41221">
<rect width="335.45" height="139.77" fill="white"/>
</clipPath>
</defs>
</svg>
